HIERARCHY
ROOT joint_Root
{
	OFFSET 0.0 0.0 0.0
	CHANNELS 6 Xposition Yposition Zposition Zrotation Xrotation Yrotation 
	JOINT Hips
	{
		OFFSET 4.5925 91.4895 -427.239
		CHANNELS 6 Xposition Yposition Zposition Zrotation Xrotation Yrotation 
		JOINT Spine
		{
			OFFSET 15.7357 0.0 0.0
			CHANNELS 6 Xposition Yposition Zposition Zrotation Xrotation Yrotation 
			JOINT Chest
			{
				OFFSET 8.98455 -0.406207 0.0
				CHANNELS 6 Xposition Yposition Zposition Zrotation Xrotation Yrotation 
				JOINT Neck
				{
					OFFSET 16.3773 0.0 0.0
					CHANNELS 6 Xposition Yposition Zposition Zrotation Xrotation Yrotation 
					JOINT Head
					{
						OFFSET 6.45672 0.0 0.0
						CHANNELS 6 Xposition Yposition Zposition Zrotation Xrotation Yrotation 
						End Site
						{
							OFFSET 0.0 0.0 0.0
						}
					}
				}
				JOINT Shoulder_L
				{
					OFFSET 12.9942 -0.242716 4.98039
					CHANNELS 6 Xposition Yposition Zposition Zrotation Xrotation Yrotation 
					JOINT UpperArm_L
					{
						OFFSET 5.34809 0.0 0.0
						CHANNELS 6 Xposition Yposition Zposition Zrotation Xrotation Yrotation 
						JOINT LowerArm_L
						{
							OFFSET 24.3286 1.87007e-05 0.0
							CHANNELS 6 Xposition Yposition Zposition Zrotation Xrotation Yrotation 
							JOINT Hand_L
							{
								OFFSET 22.2916 0.0 0.0
								CHANNELS 6 Xposition Yposition Zposition Zrotation Xrotation Yrotation 
								End Site
								{
									OFFSET 0.0 0.0 0.0
								}
							}
						}
					}
				}
				JOINT Shoulder_R
				{
					OFFSET 12.9945 -0.242716 -4.98039
					CHANNELS 6 Xposition Yposition Zposition Zrotation Xrotation Yrotation 
					JOINT UpperArm_R
					{
						OFFSET -5.34813 0.0 0.0
						CHANNELS 6 Xposition Yposition Zposition Zrotation Xrotation Yrotation 
						JOINT LowerArm_R
						{
							OFFSET -24.3289 0.000322201 0.0
							CHANNELS 6 Xposition Yposition Zposition Zrotation Xrotation Yrotation 
							JOINT Hand_R
							{
								OFFSET -22.2915 -0.000108084 0.0
								CHANNELS 6 Xposition Yposition Zposition Zrotation Xrotation Yrotation 
								End Site
								{
									OFFSET 0.0 0.0 0.0
								}
							}
						}
					}
				}
			}
		}
		JOINT UpperLeg_L
		{
			OFFSET -2.19248 -6.46944 0.0
			CHANNELS 6 Xposition Yposition Zposition Zrotation Xrotation Yrotation 
			JOINT LowerLeg_L
			{
				OFFSET 39.0811 0.0 -1.23785e-05
				CHANNELS 6 Xposition Yposition Zposition Zrotation Xrotation Yrotation 
				JOINT Foot_L
				{
					OFFSET 40.9854 0.0 -1.26872e-05
					CHANNELS 6 Xposition Yposition Zposition Zrotation Xrotation Yrotation 
					JOINT Toes_L
					{
						OFFSET 11.7543 0.0 0.0
						CHANNELS 6 Xposition Yposition Zposition Zrotation Xrotation Yrotation 
						End Site
						{
							OFFSET 0.0 0.0 0.0
						}
					}
				}
			}
		}
		JOINT UpperLeg_R
		{
			OFFSET -2.19251 6.46944 0.0
			CHANNELS 6 Xposition Yposition Zposition Zrotation Xrotation Yrotation 
			JOINT LowerLeg_R
			{
				OFFSET -39.0811 -0.00228153 -0.0401928
				CHANNELS 6 Xposition Yposition Zposition Zrotation Xrotation Yrotation 
				JOINT Foot_R
				{
					OFFSET -40.9854 0.0 0.0
					CHANNELS 6 Xposition Yposition Zposition Zrotation Xrotation Yrotation 
					JOINT Toes_R
					{
						OFFSET -11.7543 0.0 0.0
						CHANNELS 6 Xposition Yposition Zposition Zrotation Xrotation Yrotation 
						End Site
						{
							OFFSET 0.0 0.0 0.0
						}
					}
				}
			}
		}
	}
}
MOTION
Frames:	4
Frame Time:	0.0333333
0.000000 0.000000 0.000000 0.000000 0.000000 -0.000000 -2.367750 81.432600 -2.715720 87.951800 -6.886180 9.993390 15.735700 0.000005 -0.000001 86.084400 80.049700 -84.903200 8.984550 -0.406207 -0.000000 12.105100 -1.302290 2.499960 16.377300 -0.000001 -0.000001 -1.802980 1.229550 1.041020 6.456720 -0.000001 -0.000000 -8.947690 5.715360 -1.434600 12.994200 -0.242716 4.980390 -91.373600 4.840330 -74.136600 5.348090 -0.000007 -0.000001 -59.017900 36.938700 -16.887600 24.328600 0.000019 0.000005 9.086080 20.989700 -24.060400 22.291600 -0.000001 0.000005 13.370400 5.208070 2.539250 12.994500 -0.242716 -4.980390 87.947800 11.883300 -80.128100 -5.348130 -0.000001 -0.000004 -64.104700 12.640600 -19.108700 -24.328900 0.000322 -0.000009 -3.873320 -17.816900 -12.479500 -22.291500 -0.000108 -0.000004 9.415310 5.113880 4.880360 -2.192480 -6.469440 -0.000000 -171.746000 -12.123500 -18.537800 39.081100 -0.000007 -0.000012 -0.616006 0.288761 64.885900 40.985400 -0.000006 -0.000013 -1.418080 2.473830 -85.475200 11.754300 -0.000000 0.000003 -0.000494 -0.003941 -16.721700 -2.192510 6.469440 -0.000001 -178.671000 9.441140 160.820000 -39.081100 -0.002282 -0.040193 0.083039 -0.037986 64.564600 -40.985400 0.000008 0.000006 8.210820 0.880939 -85.214400 -11.754300 -0.000006 -0.000006 -0.823631 -1.020460 -16.660900
0.000000 0.000000 0.000000 0.000000 0.000000 -0.000000 -2.949060 83.449500 -1.897260 88.166200 -6.004790 9.438010 15.735700 0.000005 -0.000001 83.151300 81.257700 -83.104800 8.984550 -0.406207 -0.000000 9.599180 -2.072030 0.266863 16.377300 -0.000001 -0.000001 -0.856217 1.460380 0.370588 6.456720 -0.000001 -0.000000 -7.500350 5.361910 -0.437886 12.994200 -0.242716 4.980390 -91.438300 4.789410 -73.262100 5.348090 -0.000007 -0.000001 -60.112500 34.066600 -13.545200 24.328600 0.000019 0.000005 8.759530 21.398800 -22.894400 22.291600 -0.000001 0.000005 11.166800 5.174690 3.339550 12.994500 -0.242716 -4.980390 87.983900 10.408900 -78.973500 -5.348130 -0.000001 -0.000004 -63.229300 2.293760 -20.632700 -24.328900 0.000322 -0.000009 -2.174940 -19.926400 -6.360060 -22.291500 -0.000108 -0.000004 4.121800 4.694350 13.291400 -2.192480 -6.469440 -0.000000 -171.713000 -11.809100 -15.684600 39.081100 -0.000007 -0.000012 -0.537819 0.323036 59.010500 40.985400 -0.000006 -0.000013 -1.666140 3.092620 -83.027200 11.754300 -0.000000 0.000003 -0.000438 -0.003568 -16.708700 -2.192510 6.469440 -0.000001 -178.774000 10.468200 163.784000 -39.081100 -0.002282 -0.040193 0.076970 -0.044432 58.936600 -40.985400 0.000008 0.000006 8.431010 1.380750 -82.954800 -11.754300 -0.000006 -0.000006 -0.935816 -1.159790 -16.841200
0.000000 0.000000 0.000000 0.000000 0.000000 -0.000000 -3.521270 86.011500 -1.030300 88.241000 -4.807950 8.790410 15.735700 0.000005 -0.000001 79.148200 82.619800 -80.306900 8.984550 -0.406207 -0.000000 6.709550 -2.759340 -2.153290 16.377300 -0.000001 -0.000001 0.772813 1.295600 -0.251324 6.456720 -0.000001 -0.000000 -5.719690 4.359870 1.049950 12.994200 -0.242716 4.980390 -91.248700 3.924850 -72.334000 5.348090 -0.000007 -0.000001 -61.596800 30.925100 -9.953860 24.328600 0.000019 0.000005 7.655910 19.720300 -21.720500 22.291600 -0.000001 0.000005 9.172640 5.255530 1.272390 12.994500 -0.242716 -4.980390 88.258500 8.349340 -78.173400 -5.348130 -0.000001 -0.000004 -58.974400 -9.416270 -23.699400 -24.328900 0.000322 -0.000009 -0.985633 -20.894400 -2.760290 -22.291500 -0.000108 -0.000004 5.623020 4.506020 16.507700 -2.192480 -6.469440 -0.000000 -171.632000 -11.309400 -11.813000 39.081100 -0.000007 -0.000012 -0.419642 0.342367 50.791500 40.985400 -0.000006 -0.000013 -1.912090 3.851080 -79.382500 11.754300 -0.000000 0.000003 -0.000296 -0.002572 -16.673400 -2.192510 6.469440 -0.000001 -178.814000 11.825200 167.830000 -39.081100 -0.002282 -0.040193 0.068782 -0.053101 50.984700 -40.985400 0.000008 0.000006 8.467380 2.169350 -79.357200 -11.754300 -0.000006 -0.000006 -0.950573 -1.169290 -17.299100
0.000000 0.000000 0.000000 0.000000 0.000000 -0.000000 -4.026910 88.308600 -0.176055 88.356700 -3.824090 8.415370 15.735700 0.000005 -0.000001 74.790100 83.775400 -77.056100 8.984550 -0.406207 -0.000000 4.193330 -3.190400 -4.410890 16.377300 -0.000001 -0.000001 2.665430 0.932846 -0.615243 6.456720 -0.000001 -0.000000 -4.333930 3.543970 2.285050 12.994200 -0.242716 4.980390 -91.042400 3.096480 -71.382400 5.348090 -0.000007 -0.000001 -62.138600 28.227400 -6.987960 24.328600 0.000019 0.000005 7.216220 18.952800 -21.297800 22.291600 -0.000001 0.000005 7.647190 5.274570 0.776718 12.994500 -0.242716 -4.980390 88.628200 6.260360 -77.612700 -5.348130 -0.000001 -0.000004 -53.310900 -22.940200 -29.699500 -24.328900 0.000322 -0.000009 -0.767345 -24.102900 -1.876430 -22.291500 -0.000108 -0.000004 11.695100 4.685590 13.455000 -2.192480 -6.469440 -0.000000 -171.454000 -11.350400 -7.370800 39.081100 -0.000007 -0.000012 -0.297015 0.328694 42.102200 40.985400 -0.000006 -0.000013 -2.127250 4.837830 -75.506800 11.754300 -0.000000 0.000003 -0.000145 -0.001412 -16.631300 -2.192510 6.469440 -0.000001 -178.976000 12.996700 172.118000 -39.081100 -0.002282 -0.040193 0.058833 -0.059795 42.898700 -40.985400 0.000008 0.000006 8.227980 3.123450 -75.255400 -11.754300 -0.000006 -0.000006 -1.108440 -1.349590 -17.966700
